# xmcd
#
# Track frame offsets: 
#        150
#        11770
#        21374
#        29382
#        43506
#        53506
#        63138
#        77732
#        79827
#        90719
#        105137
#        121100
#        131365
#        144395
#        158407
#        173206
#        184746
#        194489
#        202492
#        216492
#        226411
#        236267
#        247205
#        261675
#        277480
#        287693
#
# Disc length: 4017 seconds
#
# Revision: 1
# Processed by: cddbd v1.5.2PL0 Copyright (c) Steve Scherf et al.
# Submitted via: ExactAudioCopy v0.99pb3
#
DISCID=780faf1a
DTITLE=Colin Buchanan-Greg Champion - Aussie Christmas with Bucko and Ch
DTITLE=amps
DYEAR=1999
DGENRE=Christmas
TTITLE0=Aussie Jingle Bells
TTITLE1=Deck The Shed With Bits Of Wattle
TTITLE2=The Holly and the Ivy (Feral Pig and Cane Toad)
TTITLE3=He's The Aussie Santa
TTITLE4=We Wish You A Ripper Christmas
TTITLE5=Australians Let Us Barbecue #2
TTITLE6=Six White Bloomers
TTITLE7=We Three Kings
TTITLE8=Father Christmas Showed Me How To Yodel
TTITLE9=Good Old Wally King
TTITLE10=Everywhere It's Christmas
TTITLE11=The North Wind (Christmas Day)
TTITLE12=Santa Never Made It Into Darwin
TTITLE13=Carol Of The Birds
TTITLE14=It's Christmas Time
TTITLE15=Aussie Jingle Bells (Karaoke)
TTITLE16=Deck The Shed With Bits Of Wattle (Karaoke)
TTITLE17=The Holly and the Ivy (Feral Pig and Cane Toad) (Karaoke)
TTITLE18=He's The Aussie Santa (Karaoke)
TTITLE19=We Wish You A Ripper Christmas (Karaoke)
TTITLE20=Australians Let Us Barbecue #2 (Karaoke)
TTITLE21=Father Christmas Showed Me How To Yodel (Karaoke)
TTITLE22=Good Old Wally King (Karaoke)
TTITLE23=Everywhere It's Christmas (Karaoke)
TTITLE24=The North Wind (Christmas Day) (Karaoke)
TTITLE25=Carol Of The Birds (Karaoke)
EXTD=
EXTT0=
EXTT1=
EXTT2=
EXTT3=
EXTT4=
EXTT5=
EXTT6=
EXTT7=
EXTT8=
EXTT9=
EXTT10=
EXTT11=
EXTT12=
EXTT13=
EXTT14=
EXTT15=
EXTT16=
EXTT17=
EXTT18=
EXTT19=
EXTT20=
EXTT21=
EXTT22=
EXTT23=
EXTT24=
EXTT25=
PLAYORDER=
